<?xml version="1.0" encoding="iso-8859-1"?>
<!-- Generator: Adobe Illustrator 19.0.0, SVG Export Plug-In . SVG Version: 6.00 Build 0)  -->
<svg version="1.1" id="Layer_1" xmlns="http://www.w3.org/2000/svg" xmlns:xlink="http://www.w3.org/1999/xlink" x="0px" y="0px"
	 viewBox="0 0 512 512" style="enable-background:new 0 0 512 512;" xml:space="preserve">
<g>
	<g>
		<path d="M437.019,74.981C388.668,26.629,324.38,0,256,0S123.332,26.629,74.981,74.981S0,187.62,0,256
			c0,46.902,12.8,92.779,37.016,132.667c2.18,3.59,6.856,4.734,10.446,2.554c3.59-2.18,4.733-6.856,2.554-10.446
			C27.245,343.266,15.208,300.119,15.208,256c0-64.317,25.046-124.786,70.526-170.266S191.683,15.208,256,15.208
			s124.786,25.046,170.266,70.526S496.792,191.683,496.792,256s-25.046,124.786-70.526,170.266S320.317,496.792,256,496.792
			c-38.57,0-75.412-8.842-109.502-26.28c-32.527-16.638-61.334-40.929-83.305-70.244c-2.518-3.36-7.286-4.043-10.646-1.524
			c-3.36,2.518-4.043,7.285-1.524,10.646c23.352,31.158,53.972,56.976,88.549,74.663C175.827,502.596,214.998,512,256,512
			c68.38,0,132.668-26.629,181.019-74.981C485.37,388.667,512,324.38,512,256S485.371,123.332,437.019,74.981z"/>
	</g>
</g>
<g>
	<g>
		<path d="M390.489,93.617c-3.232-2.68-8.027-2.233-10.707,1.001s-2.232,8.027,1,10.707c45.026,37.331,70.85,92.251,70.85,150.676
			c0,107.871-87.76,195.631-195.632,195.631S60.369,363.871,60.369,256S148.129,60.369,256,60.369
			c37.205,0,73.392,10.482,104.652,30.313c3.545,2.25,8.245,1.198,10.494-2.347c2.25-3.546,1.199-8.245-2.347-10.494
			c-33.7-21.379-72.705-32.68-112.799-32.68C139.744,45.161,45.161,139.744,45.161,256S139.744,466.839,256,466.839
			S466.84,372.256,466.84,256C466.84,193.033,439.011,133.847,390.489,93.617z"/>
	</g>
</g>
<g>
	<g>
		<path d="M256,75.577c-4.199,0-7.604,3.405-7.604,7.604v21.012c0,4.199,3.405,7.604,7.604,7.604s7.604-3.405,7.604-7.604V83.181
			C263.604,78.982,260.199,75.577,256,75.577z"/>
	</g>
</g>
<g>
	<g>
		<path d="M256,400.203c-4.199,0-7.604,3.405-7.604,7.604v21.012c0,4.199,3.405,7.604,7.604,7.604s7.604-3.405,7.604-7.604v-21.012
			C263.604,403.607,260.199,400.203,256,400.203z"/>
	</g>
</g>
<g>
	<g>
		<path d="M428.82,248.396h-21.012c-4.199,0-7.604,3.405-7.604,7.604s3.405,7.604,7.604,7.604h21.012
			c4.199,0,7.604-3.405,7.604-7.604S433.019,248.396,428.82,248.396z"/>
	</g>
</g>
<g>
	<g>
		<path d="M104.194,248.396H83.181c-4.199,0-7.604,3.405-7.604,7.604s3.405,7.604,7.604,7.604h21.012
			c4.199,0,7.604-3.405,7.604-7.604S108.393,248.396,104.194,248.396z"/>
	</g>
</g>
<g>
	<g>
		<path d="M345.85,99.54c-3.641-2.091-8.288-0.834-10.381,2.807l-10.464,18.222c-2.092,3.642-0.834,8.289,2.807,10.381
			c1.193,0.685,2.495,1.011,3.78,1.011c2.634,0,5.195-1.371,6.601-3.818l10.464-18.222
			C350.749,106.279,349.492,101.631,345.85,99.54z"/>
	</g>
</g>
<g>
	<g>
		<path d="M184.188,381.05c-3.64-2.091-8.288-0.834-10.381,2.807l-10.464,18.222c-2.092,3.642-0.834,8.289,2.807,10.381
			c1.193,0.685,2.495,1.011,3.78,1.011c2.634,0,5.195-1.371,6.601-3.818l10.464-18.222
			C189.087,387.789,187.83,383.141,184.188,381.05z"/>
	</g>
</g>
<g>
	<g>
		<path d="M411.87,165.132c-2.115-3.629-6.77-4.854-10.399-2.739l-18.153,10.583c-3.629,2.115-4.854,6.771-2.739,10.399
			c1.413,2.423,3.96,3.776,6.576,3.776c1.301,0,2.619-0.334,3.823-1.036l18.153-10.583
			C412.759,173.416,413.985,168.76,411.87,165.132z"/>
	</g>
</g>
<g>
	<g>
		<path d="M131.423,328.626c-2.115-3.628-6.771-4.854-10.399-2.739l-18.153,10.583c-3.629,2.115-4.854,6.771-2.739,10.399
			c1.412,2.424,3.959,3.776,6.576,3.776c1.301,0,2.619-0.334,3.823-1.036l18.153-10.583
			C132.312,336.91,133.538,332.255,131.423,328.626z"/>
	</g>
</g>
<g>
	<g>
		<path d="M409.524,335.715l-18.205-10.492c-3.637-2.097-8.287-0.848-10.386,2.79c-2.097,3.639-0.848,8.288,2.79,10.385
			l18.205,10.493c1.196,0.689,2.502,1.017,3.791,1.017c2.629,0,5.187-1.366,6.595-3.808
			C414.411,342.461,413.162,337.812,409.524,335.715z"/>
	</g>
</g>
<g>
	<g>
		<path d="M128.277,173.602l-18.205-10.493c-3.638-2.097-8.287-0.848-10.386,2.79c-2.097,3.639-0.848,8.288,2.79,10.385
			l18.205,10.494c1.196,0.689,2.502,1.017,3.791,1.017c2.629,0,5.187-1.366,6.595-3.808
			C133.164,180.348,131.914,175.698,128.277,173.602z"/>
	</g>
</g>
<g>
	<g>
		<path d="M349.866,401.305l-10.615-18.134c-2.122-3.625-6.781-4.842-10.403-2.721c-3.625,2.122-4.842,6.78-2.721,10.403
			l10.615,18.135c1.415,2.417,3.957,3.763,6.569,3.763c1.305,0,2.627-0.337,3.834-1.043
			C350.77,409.586,351.987,404.928,349.866,401.305z"/>
	</g>
</g>
<g>
	<g>
		<path d="M185.874,121.147l-10.615-18.134c-2.121-3.625-6.781-4.842-10.403-2.721c-3.625,2.122-4.842,6.78-2.721,10.403
			l10.615,18.134c1.414,2.417,3.957,3.764,6.569,3.764c1.305,0,2.627-0.337,3.834-1.043
			C186.778,129.429,187.995,124.771,185.874,121.147z"/>
	</g>
</g>
<g>
	<g>
		<path d="M316.763,188.371c-2.97-2.97-7.784-2.97-10.753,0l-53.442,53.442l-84.103-84.103c-2.97-2.97-7.784-2.97-10.753,0
			c-2.97,2.97-2.97,7.783,0,10.753l84.103,84.103l-12.601,12.601c-2.97,2.97-2.97,7.783,0,10.753
			c1.484,1.485,3.431,2.227,5.377,2.227c1.946,0,3.892-0.742,5.376-2.227l12.601-12.601l13.875,13.875
			c1.484,1.485,3.431,2.227,5.377,2.227c1.946,0,3.892-0.742,5.377-2.227c2.97-2.97,2.97-7.783,0-10.753l-13.875-13.875
			l53.442-53.442C319.732,196.156,319.732,191.341,316.763,188.371z"/>
	</g>
</g>
<g>
</g>
<g>
</g>
<g>
</g>
<g>
</g>
<g>
</g>
<g>
</g>
<g>
</g>
<g>
</g>
<g>
</g>
<g>
</g>
<g>
</g>
<g>
</g>
<g>
</g>
<g>
</g>
<g>
</g>
</svg>
