<?xml version="1.0" encoding="iso-8859-1"?>
<!-- Generator: Adobe Illustrator 16.0.0, SVG Export Plug-In . SVG Version: 6.00 Build 0)  -->
<!DOCTYPE svg PUBLIC "-//W3C//DTD SVG 1.1//EN" "http://www.w3.org/Graphics/SVG/1.1/DTD/svg11.dtd">
<svg version="1.1" id="Capa_1" xmlns="http://www.w3.org/2000/svg" xmlns:xlink="http://www.w3.org/1999/xlink" x="0px" y="0px"
	 width="472.559px" height="472.559px" viewBox="0 0 472.559 472.559" style="enable-background:new 0 0 472.559 472.559;"
	 xml:space="preserve">
<g>
	<g>
		<rect x="316.829" y="127.782" width="27.299" height="27.301"/>
		<rect x="316.829" y="86.112" width="27.299" height="27.3"/>
		<path d="M364.423,233.545c1.547,0.72,2.48,1.159,3.068,1.442l0.008-0.017c2.043,0.979,4.02,2.151,5.939,3.453h16.25v-27.299
			h-17.303C371.101,219.66,368.413,227.254,364.423,233.545z"/>
		<path d="M362.39,169.956c0.09,0.089,0.184,0.171,0.273,0.261c6.51,6.576,10.037,15.497,10.527,26.536h16.5v-27.301H362.39V169.956
			z"/>
		<rect x="362.39" y="86.112" width="27.301" height="27.3"/>
		<rect x="362.39" y="127.782" width="27.301" height="27.301"/>
		<path d="M302.065,27.877V0H170.494v27.877H51.796V380h46.566l-0.001-20.025H71.822v-35.908
			c-4.249-8.629-8.076-18.181-9.159-26.236c-0.56-4.195-0.053-8.485,1.466-12.42c0.062-0.16,2.792-6.664,7.693-15.1V47.903h94.959
			v118.434c1.648,1.156,3.186,2.447,4.605,3.88c5.884,5.942,9.334,13.797,10.307,23.4c3.938-3.34,8.127-6.209,12.534-8.324
			l0.913-4.06v-11.208c-3.667-8.78-5.64-19.082-5.765-30.434c-0.099-10.101,3.295-46.667,47.05-46.667s47.146,36.323,47.044,46.651
			c-0.127,11.658-2.196,22.207-6.05,31.137v10.521l0.906,4.027l0.002-0.005c4.49,2.154,8.758,5.091,12.76,8.513
			c0.953-9.676,4.406-17.579,10.318-23.549c1.354-1.366,2.812-2.606,4.373-3.721V47.903h94.959v222.378
			c4.898,8.431,7.627,14.929,7.688,15.084c1.529,3.953,2.035,8.26,1.467,12.453c-1.08,8.03-4.906,17.576-9.154,26.203v35.952
			h-26.541v20.024h46.566V27.877H302.065z M225.287,85.87H195.14V55.722h30.147V85.87z M277.42,85.87h-30.147V55.722h30.147V85.87z"
			/>
		<rect x="82.871" y="127.782" width="27.3" height="27.301"/>
		<rect x="82.871" y="86.112" width="27.3" height="27.3"/>
		<path d="M82.871,238.424h16.293c1.904-1.288,3.865-2.45,5.89-3.422c0.095-0.045,0.245-0.117,3.286-1.51
			c-3.973-6.281-6.649-13.857-7.931-22.367H82.871V238.424z"/>
		<path d="M82.871,196.754h16.734c0.491-11.045,4.018-19.962,10.526-26.536c0.013-0.013,0.026-0.024,0.039-0.038v-0.728h-27.3
			L82.871,196.754L82.871,196.754z"/>
		<rect x="128.431" y="86.112" width="27.3" height="27.3"/>
		<rect x="128.431" y="127.782" width="27.3" height="27.301"/>
		<path d="M290.647,306.793c3.398-5.368,20.486-33.006,22.766-49.953c0.277-2.072,0.027-4.184-0.727-6.137
			c-2.367-6.12-19.959-41.655-40.847-51.675c-0.019-0.01-16.269-7.544-16.269-7.544l-7.09-5.982l-10.598,10.548l10.68,71.397
			c0.036,0.244-0.025,0.496-0.173,0.697l-11.182,15.303c-0.179,0.244-0.462,0.39-0.764,0.39c-0.302,0-0.585-0.146-0.764-0.39
			l-11.182-15.303c-0.146-0.201-0.208-0.453-0.171-0.697l10.674-71.365l-10.631-10.581l-7.092,5.982c0,0-16.161,7.389-16.565,7.582
			c-20.882,10.02-38.475,45.554-40.842,51.675c-0.754,1.953-1.003,4.062-0.728,6.138c2.278,16.946,19.366,44.586,22.767,49.954
			c2.369,3.732,6.392,5.773,10.507,5.773c2.165,0,4.354-0.574,6.339-1.756c1,2.807,2.424,5.422,4.179,7.819l0.007,138.813
			c0.001,8.326,6.752,15.074,15.076,15.074c8.328,0,15.076-6.75,15.075-15.074l0.161-122.358c1.063,0.09,2.124,0.142,3.168,0.142
			c1.008,0,2.027-0.05,3.049-0.135l-0.002,122.352c0,8.326,6.747,15.074,15.074,15.074c8.322,0,15.074-6.748,15.074-15.072
			l0.002-138.424c1.863-2.473,3.379-5.182,4.429-8.103c1.919,1.083,4.015,1.608,6.086,1.608
			C284.252,312.568,288.278,310.523,290.647,306.793z M184.428,256.576c2.608-5.438,7.405-13.586,12.674-20.75l0.008,47.998
			C191.8,274.441,186.376,263.539,184.428,256.576z M275.747,236.188c5.156,7.064,9.824,15.009,12.381,20.349
			c-1.912,6.824-7.169,17.455-12.387,26.722L275.747,236.188z"/>
		<path d="M268.47,139.675c0.196-19.708-9.188-31.501-32.045-31.501c-22.86,0-32.244,11.793-32.051,31.501
			c0.313,28.394,13.872,45.331,32.051,45.331C254.596,185.006,268.161,168.069,268.47,139.675z"/>
		<path d="M376.401,336.923c2.783-4.394,16.764-27.007,18.627-40.875c0.23-1.694,0.025-3.423-0.592-5.021
			c-1.939-5.008-16.332-34.086-33.424-42.283c-0.016-0.008-13.311-6.172-13.311-6.172l-5.803-4.896l-8.801,8.76l8.551,57.172
			c0.031,0.195-0.02,0.396-0.135,0.555l-8.875,12.146c-0.143,0.194-0.367,0.31-0.607,0.31s-0.465-0.114-0.605-0.31l-8.875-12.146
			c-0.115-0.159-0.166-0.358-0.137-0.555l8.553-57.179l-8.793-8.753l-2.963,2.499c2.033,4.067,3.143,6.668,3.184,6.771
			c1.385,3.584,1.846,7.483,1.332,11.285c-2.436,18.113-18.352,44.692-23.861,53.457l-1.99,2.842
			c-4.316,5.332-10.77,8.449-17.74,8.449c-0.033,0-0.068,0-0.104,0v1.358c3.273,6.015,6.266,10.827,7.398,12.616
			c1.938,3.054,5.229,4.726,8.598,4.725c1.771,0,3.562-0.47,5.188-1.438c0.818,2.297,1.984,4.438,3.418,6.398l0.008,113.584
			c0,6.812,5.523,12.334,12.334,12.334c6.814,0,12.336-5.523,12.334-12.336l0.133-100.117c0.871,0.072,1.738,0.114,2.592,0.114
			c0.826,0,1.66-0.04,2.496-0.108l-0.002,100.113c0,6.812,5.52,12.334,12.334,12.334c6.811,0,12.332-5.521,12.332-12.334
			l0.002-113.264c1.525-2.023,2.766-4.239,3.625-6.631c1.57,0.888,3.283,1.316,4.98,1.316
			C371.171,341.648,374.464,339.975,376.401,336.923z M364.206,317.666l0.004-38.516c4.219,5.78,8.039,12.281,10.133,16.65
			C372.778,301.383,368.474,310.082,364.206,317.666z"/>
		<path d="M305.812,200.178c0.256,23.234,11.35,37.092,26.225,37.092c14.867,0,25.969-13.857,26.221-37.092
			c0.16-16.125-7.518-25.775-26.221-25.775C313.329,174.403,305.653,184.053,305.812,200.178z"/>
		<path d="M174.656,314.539l-1.724-2.43c-5.274-8.353-21.63-35.439-24.105-53.844c-0.506-3.811-0.045-7.705,1.337-11.277
			c0.039-0.105,1.18-2.778,3.268-6.944l-2.805-2.367l-8.801,8.761l8.551,57.172c0.03,0.194-0.02,0.395-0.136,0.553l-8.875,12.146
			c-0.141,0.194-0.366,0.309-0.606,0.309c-0.24,0-0.465-0.113-0.606-0.309l-8.875-12.146c-0.116-0.158-0.166-0.357-0.136-0.553
			l8.552-57.179l-8.793-8.754l-5.804,4.896c0,0-13.225,6.047-13.554,6.205c-17.087,8.197-31.482,37.272-33.42,42.282
			c-0.616,1.597-0.82,3.324-0.594,5.021c1.864,13.867,15.844,36.482,18.628,40.875c1.938,3.054,5.229,4.726,8.598,4.725
			c1.771,0,3.562-0.47,5.187-1.438c0.818,2.297,1.982,4.438,3.418,6.398l0.006,113.584c0,6.812,5.525,12.334,12.336,12.334
			c6.814,0,12.335-5.523,12.334-12.336l0.133-100.117c0.868,0.072,1.736,0.114,2.592,0.114c0.825,0,1.658-0.04,2.494-0.108
			l-0.002,100.113c0,6.812,5.52,12.334,12.333,12.334c6.812,0,12.335-5.521,12.335-12.334l0.001-113.264
			c1.525-2.023,2.766-4.239,3.625-6.631c1.569,0.888,3.283,1.316,4.98,1.316c3.366,0,6.661-1.673,8.6-4.726
			c1.132-1.789,4.124-6.604,7.397-12.617v-1.288c-0.037,0-0.071,0-0.106,0C185.433,323.017,178.968,319.887,174.656,314.539z
			 M98.215,295.834c2.135-4.452,6.06-11.118,10.371-16.979l0.008,39.272C104.247,310.451,99.809,301.531,98.215,295.834z"/>
		<path d="M114.538,200.178c0.255,23.234,11.35,37.092,26.224,37.092c14.867,0,25.966-13.857,26.22-37.092
			c0.159-16.125-7.519-25.775-26.22-25.775C122.055,174.403,114.378,184.053,114.538,200.178z"/>
	</g>
</g>
<g>
</g>
<g>
</g>
<g>
</g>
<g>
</g>
<g>
</g>
<g>
</g>
<g>
</g>
<g>
</g>
<g>
</g>
<g>
</g>
<g>
</g>
<g>
</g>
<g>
</g>
<g>
</g>
<g>
</g>
</svg>
