<?xml version="1.0" encoding="iso-8859-1"?>
<!-- Generator: Adobe Illustrator 16.0.0, SVG Export Plug-In . SVG Version: 6.00 Build 0)  -->
<!DOCTYPE svg PUBLIC "-//W3C//DTD SVG 1.1//EN" "http://www.w3.org/Graphics/SVG/1.1/DTD/svg11.dtd">
<svg version="1.1" id="Capa_1" xmlns="http://www.w3.org/2000/svg" xmlns:xlink="http://www.w3.org/1999/xlink" x="0px" y="0px"
	 width="80.426px" height="80.426px" viewBox="0 0 80.426 80.426" style="enable-background:new 0 0 80.426 80.426;"
	 xml:space="preserve">
<g>
	<path d="M43.851,36.399c-2.14,1.031-4.308,2.094-6.488,3.177c0.722,0.194,1.431,0.395,2.135,0.616
		c-0.334,0.415-0.66,0.83-0.992,1.248c-1.023-0.312-2.075-0.6-3.13-0.876c-1.067,0.536-2.14,1.069-3.214,1.61
		c1.467,0.367,2.92,0.748,4.335,1.168c-0.332,0.415-0.66,0.837-0.989,1.252c-1.516-0.454-3.074-0.855-4.638-1.245
		c-1.152,1.458-2.303,2.913-3.455,4.368c-0.796-0.198-1.593-0.395-2.385-0.591c1.152-1.46,2.303-2.913,3.457-4.368
		c-1.518-0.379-3.041-0.771-4.515-1.207c0.332-0.419,0.661-0.832,0.993-1.252c1.378,0.408,2.789,0.778,4.215,1.129
		c-0.002-0.812-0.011-1.615-0.011-2.434c-1.072-0.283-2.135-0.577-3.174-0.895c0.33-0.419,0.658-0.837,0.99-1.252
		c0.722,0.224,1.455,0.433,2.193,0.634c0.007-1.672,0.026-3.362,0.073-5.089c0.887,0.294,1.796,0.563,2.709,0.821
		c-0.145,2.507-0.266,4.973-0.382,7.438c3.195-1.704,6.395-3.413,9.558-5.078C42.056,35.833,42.96,36.107,43.851,36.399z
		 M42.386,70.579c6.801-8.586,13.599-17.175,20.405-25.758C61.126,34.635,53.984,31.369,46,29.163l-7.371,2.163
		c0.098,0.022,0.2,0.041,0.3,0.062c7.318,1.562,8.965,8.244,4.724,13.602c-4.088,5.158-12.488,7.008-19.806,5.445
		c-7.324-1.562-8.968-8.241-4.723-13.6c3.078-3.885,8.595-5.89,14.258-5.981c-1.257-0.849-2.105-2.231-2.331-3.812l-0.149-1.083
		c-0.062-0.419-0.071-0.841-0.049-1.264c-5.181-2.342-9.25-6.088-10.458-13.454C13.594,19.827,6.797,28.413,0,36.997
		C3.921,61.071,38.455,46.501,42.386,70.579z M63.945,57.181h-8.472c-0.871,1.103-1.743,2.204-2.614,3.306h11.086
		c3.187,0,5.787-2.596,5.787-5.782V39.371c0-2.478-0.652-6.246-1.489-8.575l-6.132-17.128c-0.522-1.451-1.574-2.614-2.972-3.271
		c-1.403-0.655-2.968-0.728-4.419-0.201l-18.191,6.615c-2.882,1.047-4.804,4.248-4.373,7.286l0.145,1.038
		c0.223,1.549,1.065,2.897,2.315,3.705c1.25,0.805,2.833,1.015,4.331,0.577l10.123-2.963c0.566-0.162,1.059-0.123,1.387,0.128
		c0.379,0.283,0.457,0.769,0.457,1.122v1.104l3.308,1.654v-2.758V21.43l-6.082,1.854l-10.122,2.961
		c-0.588,0.173-1.161,0.107-1.614-0.185c-0.449-0.292-0.748-0.785-0.829-1.394l-0.145-1.033c-0.211-1.471,0.829-3.209,2.225-3.716
		l18.191-6.615c0.618-0.224,1.288-0.194,1.886,0.087c0.598,0.283,1.05,0.775,1.273,1.396l6.127,17.128
		c0.704,1.959,1.298,5.376,1.298,7.461v15.333C66.43,56.073,65.314,57.181,63.945,57.181z M71.517,59.999l8.909,0.053V34.065
		l-8.909-0.036V59.999z"/>
</g>
<g>
</g>
<g>
</g>
<g>
</g>
<g>
</g>
<g>
</g>
<g>
</g>
<g>
</g>
<g>
</g>
<g>
</g>
<g>
</g>
<g>
</g>
<g>
</g>
<g>
</g>
<g>
</g>
<g>
</g>
</svg>
