<?xml version="1.0" encoding="utf-8"?>
<!-- Generator: Adobe Illustrator 16.0.3, SVG Export Plug-In . SVG Version: 6.00 Build 0)  -->
<!DOCTYPE svg PUBLIC "-//W3C//DTD SVG 1.1//EN" "http://www.w3.org/Graphics/SVG/1.1/DTD/svg11.dtd">
<svg version="1.1" id="Capa_1" xmlns="http://www.w3.org/2000/svg" xmlns:xlink="http://www.w3.org/1999/xlink" x="0px" y="0px"
	 width="15.937px" height="15.938px" viewBox="28.5 38.554 15.937 15.938" enable-background="new 28.5 38.554 15.937 15.938"
	 xml:space="preserve">
<g>
	<path d="M44.438,39.436v14.174c0,0.487-0.394,0.882-0.882,0.882h-4.057v-6.174h2.064l0.312-2.407h-2.376v-1.535
		c0-0.695,0.187-1.162,1.193-1.162l1.266-0.011v-2.147c-0.218-0.031-0.976-0.094-1.847-0.094c-1.837,0-3.103,1.121-3.103,3.175
		v1.774h-2.075v2.407h2.075v6.174h-7.626c-0.488,0-0.882-0.395-0.882-0.882V39.436c0-0.487,0.394-0.882,0.882-0.882h14.173
		C44.044,38.554,44.438,38.948,44.438,39.436z"/>
</g>
</svg>
