<?xml version="1.0" encoding="utf-8"?>
<!-- Generator: Adobe Illustrator 16.0.3, SVG Export Plug-In . SVG Version: 6.00 Build 0)  -->
<!DOCTYPE svg PUBLIC "-//W3C//DTD SVG 1.1//EN" "http://www.w3.org/Graphics/SVG/1.1/DTD/svg11.dtd">
<svg version="1.1" id="Capa_1" xmlns="http://www.w3.org/2000/svg" xmlns:xlink="http://www.w3.org/1999/xlink" x="0px" y="0px"
	 width="23.906px" height="15.211px" viewBox="90.861 38.062 23.906 15.211" enable-background="new 90.861 38.062 23.906 15.211"
	 xml:space="preserve">
<g>
	<path d="M98.467,53.272c-4.201,0-7.605-3.403-7.605-7.605s3.404-7.605,7.605-7.605c2.055,0,3.768,0.747,5.096,1.992l-2.065,1.981
		c-0.561-0.539-1.546-1.172-3.03-1.172c-2.594,0-4.71,2.147-4.71,4.804s2.116,4.804,4.71,4.804c3.01,0,4.141-2.168,4.317-3.278
		h-4.317v-2.615h7.181c0.073,0.384,0.125,0.769,0.125,1.267C105.772,50.191,102.856,53.272,98.467,53.272z M114.768,46.757H112.6
		v2.168h-2.179v-2.168h-2.169v-2.18h2.169v-2.168h2.179v2.168h2.168V46.757z"/>
</g>
</svg>
