<?xml version="1.0" encoding="iso-8859-1"?>
<!-- Generator: Adobe Illustrator 19.0.0, SVG Export Plug-In . SVG Version: 6.00 Build 0)  -->
<svg version="1.1" id="Layer_1" xmlns="http://www.w3.org/2000/svg" xmlns:xlink="http://www.w3.org/1999/xlink" x="0px" y="0px"
	 viewBox="0 0 453.453 453.453" style="enable-background:new 0 0 453.453 453.453;" xml:space="preserve">
<g>
	<g>
		<path d="M442.776,172.878L237.165,3.742c-6.064-4.989-14.814-4.989-20.879,0L148.261,59.7V43.549c0-8.284-6.716-15-15-15h-71.95
			c-8.284,0-15,6.716-15,15v100.016l-35.636,29.314c-5.358,4.407-7.371,11.705-5.03,18.236s8.531,10.889,15.47,10.889h11.417
			v236.431c0,8.294,6.724,15.018,15.018,15.018h109.01c8.294,0,15.018-6.724,15.018-15.018v-80.589
			c0-14.307,8.961-26.393,19.566-26.393h71.166c10.605,0,19.566,12.086,19.566,26.393v80.589c0,8.294,6.724,15.018,15.018,15.018
			h109.01c8.294,0,15.018-6.724,15.018-15.018V202.003h11.417c6.938,0,13.129-4.357,15.47-10.889
			C450.148,184.583,448.135,177.285,442.776,172.878z"/>
	</g>
</g>
<g>
</g>
<g>
</g>
<g>
</g>
<g>
</g>
<g>
</g>
<g>
</g>
<g>
</g>
<g>
</g>
<g>
</g>
<g>
</g>
<g>
</g>
<g>
</g>
<g>
</g>
<g>
</g>
<g>
</g>
</svg>
