<?xml version="1.0" encoding="iso-8859-1"?>
<!-- Generator: Adobe Illustrator 16.0.0, SVG Export Plug-In . SVG Version: 6.00 Build 0)  -->
<!DOCTYPE svg PUBLIC "-//W3C//DTD SVG 1.1//EN" "http://www.w3.org/Graphics/SVG/1.1/DTD/svg11.dtd">
<svg version="1.1" id="Capa_1" xmlns="http://www.w3.org/2000/svg" xmlns:xlink="http://www.w3.org/1999/xlink" x="0px" y="0px"
	 width="97.084px" height="97.083px" viewBox="0 0 97.084 97.083" style="enable-background:new 0 0 97.084 97.083;"
	 xml:space="preserve">
<g>
	<g>
		<path d="M51.471,49.091c1.76,0,3.696-0.19,5.801-0.652c1.566-0.342,2.558-1.891,2.215-3.456c-0.342-1.565-1.889-2.556-3.455-2.215
			c-8.914,1.949-13.371-2.202-13.6-2.424c-1.125-1.123-2.947-1.134-4.083-0.018c-1.145,1.122-1.162,2.961-0.04,4.105
			C38.532,44.659,42.997,49.091,51.471,49.091z"/>
		<circle cx="30.339" cy="35.638" r="6.337"/>
		<path d="M96.276,83.284V66.707c0-2.031-1.593-3.691-3.595-3.812c1.227-0.443,2.106-1.607,2.106-2.985
			c0-1.76-1.426-3.187-3.187-3.187H49.796L19.309,40.494c-1.573-0.789-3.488-0.153-4.276,1.419c-0.79,1.572-0.154,3.487,1.418,4.276
			l28.448,15.207H24.153c-1.055,0-1.911,0.855-1.911,1.911v1.063c0,1.055,0.856,1.91,1.911,1.91h6.724
			c-0.015,0.141-0.025,0.282-0.025,0.426v16.332c-0.658,0.527-1.088,1.328-1.088,2.236c0,1.588,1.287,2.875,2.875,2.875
			s2.875-1.287,2.875-2.875c0-0.792-0.32-1.508-0.838-2.027v-3.584h57.778v3.35c-0.677,0.525-1.12,1.339-1.12,2.262
			c0,1.588,1.287,2.875,2.875,2.875s2.875-1.287,2.875-2.875C97.083,84.501,96.774,83.8,96.276,83.284z M92.453,77.114H34.675
			V66.707h57.778V77.114z"/>
		<path d="M85.676,49.117c0,0-15.518-1.719-15.838-1.718l-4.396,0.021c-1.296-12.418-13.306-8.331-13.306-8.331
			c-4.685,1.744-7.96,0.243-7.96,0.243l0.001,0.001l-1.72-1.109c-2.181-1.408-4.88-0.437-6.464,1.063c0,0-0.53,0.452-0.901,1.058
			c-0.355,0.578-0.633,1.301-0.633,1.301l-0.008,0.017c-0.527,1.523-0.539,3.464,0.357,4.947c-2.313,0.341-2.873-0.278-4.797-2.448
			c-1.121-1.293-2.789-2.29-4.403-3.255c-2.197-1.313-4.468-2.672-5.35-4.766c-0.655-1.519-0.389-3.169-0.106-4.916
			c0.215-1.333,0.426-2.709,0.219-4.058h0.319v-2.324h0.503c0.94,0,1.702-0.763,1.702-1.703v-8.194c0-0.939-0.761-1.703-1.702-1.703
			h-1.342c0.014-0.129,0.022-0.264,0.022-0.404c0-0.104-0.008-0.203-0.014-0.301h0.354c1.228,0,2.226-0.998,2.226-2.225h-0.758
			c0,0.809-0.659,1.467-1.467,1.467h-0.503c-0.172-0.49-0.476-0.788-0.85-0.788s-0.675,0.298-0.85,0.788h-5.683V8.765h-2.271v3.015
			H2.225c-0.81,0-1.466-0.658-1.466-1.467H0c0,1.227,0.999,2.225,2.226,2.225h7.831l-0.004,67.858H8.564
			c-2.414,0-4.478,1.505-5.318,3.624c-0.903,0.274-1.564,1.104-1.564,2.097c0,1.217,0.985,2.202,2.201,2.202
			c1.217,0,2.202-0.985,2.202-2.202c0-0.584-0.231-1.111-0.601-1.505c0.561-1.142,1.723-1.937,3.08-1.937h4.317h0.812
			c1.356,0,2.52,0.795,3.08,1.937c-0.37,0.394-0.601,0.921-0.601,1.505c0,1.217,0.985,2.202,2.202,2.202
			c1.216,0,2.201-0.985,2.201-2.202c0-0.992-0.662-1.822-1.564-2.097c-0.84-2.119-2.904-3.624-5.317-3.624H12.98h-0.647v-4.553
			l-0.002,0.002V12.537h5.536c-0.008,0.098-0.016,0.196-0.016,0.301c0,0.141,0.008,0.275,0.022,0.404h-1.34
			c-0.94,0-1.703,0.764-1.703,1.703v8.194c0,0.94,0.762,1.703,1.703,1.703h0.472v1.025h1.292v-1.025H19.4v2.324h0.175
			c0.223,1.26,0.005,2.617-0.206,3.931c-0.288,1.784-0.585,3.627,0.159,5.354c0.981,2.332,3.368,3.758,5.675,5.137
			c1.631,0.977,3.173,1.897,4.212,3.097c1.739,1.962,2.569,2.802,4.352,2.802c0.453,0,0.979-0.06,1.587-0.163
			c0.233,0.247,0.497,0.476,0.804,0.675c0,0,10.392,7.161,16.939,7.38l31.701-0.021c1.476,0,2.827-0.632,3.233-2.123
			C88.518,51.45,87.463,49.604,85.676,49.117z M18.628,12.537h0.466c0.009,0.096,0.022,0.188,0.022,0.301
			c0,0.149-0.011,0.284-0.028,0.404h-0.453c-0.018-0.12-0.028-0.255-0.028-0.404C18.607,12.724,18.62,12.632,18.628,12.537z
			 M18.887,21.151c-0.989,0-1.791-0.802-1.791-1.791c0-0.988,1.791-3.791,1.791-3.791s1.791,2.803,1.791,3.791
			C20.677,20.349,19.875,21.151,18.887,21.151z M59.862,47.987c-0.578,0.903-1.474,1.526-2.521,1.755
			c-2,0.438-3.979,0.66-5.887,0.66c-8.576,0-13.134-4.38-13.626-4.879c-0.444-0.453-0.751-0.997-0.939-1.584
			c-0.02-0.055-0.034-0.111-0.05-0.169c-0.046-0.165-0.084-0.332-0.107-0.504c-0.006-0.043-0.022-0.084-0.027-0.128
			c-0.009-0.074,0.001-0.147-0.004-0.222c-0.004-0.082-0.022-0.16-0.021-0.243c0-0.049,0.013-0.096,0.015-0.145
			c0.006-0.131,0.023-0.259,0.042-0.388c0.019-0.138,0.041-0.272,0.074-0.406c0.02-0.074,0.045-0.147,0.069-0.222
			c0.195-0.622,0.523-1.197,1.002-1.667c0.754-0.739,1.752-1.148,2.811-1.148c1.069,0,2.077,0.417,2.835,1.173
			c0.092,0.089,2.657,2.507,7.906,2.507c1.336,0,2.746-0.16,4.191-0.477c0.283-0.062,0.572-0.092,0.859-0.092
			c1.871,0,3.52,1.327,3.918,3.155C60.633,46.011,60.439,47.085,59.862,47.987z"/>
	</g>
</g>
<g>
</g>
<g>
</g>
<g>
</g>
<g>
</g>
<g>
</g>
<g>
</g>
<g>
</g>
<g>
</g>
<g>
</g>
<g>
</g>
<g>
</g>
<g>
</g>
<g>
</g>
<g>
</g>
<g>
</g>
</svg>
