<?xml version="1.0" encoding="iso-8859-1"?>
<!-- Generator: Adobe Illustrator 16.0.0, SVG Export Plug-In . SVG Version: 6.00 Build 0)  -->
<!DOCTYPE svg PUBLIC "-//W3C//DTD SVG 1.1//EN" "http://www.w3.org/Graphics/SVG/1.1/DTD/svg11.dtd">
<svg version="1.1" id="Capa_1" xmlns="http://www.w3.org/2000/svg" xmlns:xlink="http://www.w3.org/1999/xlink" x="0px" y="0px"
	 width="476.379px" height="476.378px" viewBox="0 0 476.379 476.378" style="enable-background:new 0 0 476.379 476.378;"
	 xml:space="preserve">
<g>
	<g>
		<path d="M85.945,130.17c3.648,0.948,7.418,1.423,11.188,1.423c18.127,0,34.84-11.434,41.395-28.341
			c6.614-17.058,1.81-36.94-11.813-49.126c-13.637-12.2-34.003-14.742-50.209-6.218C60.361,56.4,50.917,74.396,53.069,92.506
			C55.197,110.412,68.494,125.638,85.945,130.17z"/>
		<path d="M364.299,130.17c3.648,0.948,7.42,1.423,11.189,1.423c18.125,0,34.834-11.438,41.387-28.341
			c6.635-17.105,1.781-37.042-11.916-49.22c-13.686-12.167-34.08-14.636-50.264-6.039c-16.055,8.527-25.42,26.465-23.275,44.512
			C333.549,110.413,346.846,125.639,364.299,130.17z"/>
		<path d="M457.994,226.994c0.689-6.456,0.82-12.94,0.92-19.426c-0.186-5.946-0.279-11.967-1.221-17.854
			c-1.15-9.168-3.312-18.345-6.781-26.922l-1.385-3.407c-1.609-3.375-3.303-6.652-5.129-9.914
			c-3.861-6.281-8.336-12.049-13.607-17.211c-1.734-1.597-3.422-3.188-5.201-4.577c-1.727-1.458-3.535-2.708-5.264-3.958
			c-2.24-1.46-4.48-2.906-6.83-4.188c-6.969,7.627-16.209,13.067-26.281,15.391c-10.398,2.399-21.482,1.462-31.32-2.679
			c-6.887-2.899-13.105-7.321-18.125-12.854c-0.627,0.337-1.254,0.685-1.883,1.062c-1.732,0.96-3.445,2.111-5.229,3.27
			c-1.729,1.25-3.539,2.498-5.268,3.956c-1.781,1.39-3.467,2.979-5.203,4.575c-5.279,5.157-9.758,10.93-13.619,17.212
			c-1.83,3.262-3.521,6.541-5.131,9.916l-1.385,3.408c-3.471,8.58-5.627,17.754-6.775,26.924
			c-0.947,5.885-1.027,11.909-1.219,17.853c0.082,5.217,0.262,10.398,0.592,15.605c0.24,3.797,0.74,7.58,1.154,11.361
			c0.021,0.2,0.062,0.394,0.094,0.591c-5.373-0.88-10.463-3.45-15.156-6.111c-4.817-2.731-9.475-5.773-13.939-9.05
			c-4.389-3.222-8.373-7.013-13.256-9.506c-4.439-2.268-9.355-3.551-14.35-3.596v-0.003c-0.047,0.002-0.096,0.002-0.143,0v0.003
			c-4.994,0.045-9.91,1.328-14.35,3.596c-5.096,2.602-9.253,6.604-13.854,9.943c-4.576,3.322-9.35,6.418-14.303,9.151
			c-2.459,1.357-4.983,2.603-7.593,3.645c-2.591,1.035-5.444,2.021-8.261,2.097c0.045-0.251,0.094-0.502,0.123-0.759
			c0.402-3.667,0.895-7.336,1.133-11.018c0.342-5.322,0.529-10.617,0.613-15.949c-0.192-5.944-0.273-11.967-1.218-17.853
			c-1.149-9.17-3.308-18.345-6.778-26.924l-1.383-3.408c-1.609-3.376-3.304-6.653-5.132-9.916
			c-3.86-6.282-8.339-12.056-13.618-17.212c-1.736-1.596-3.423-3.186-5.203-4.575c-1.729-1.458-3.539-2.706-5.268-3.956
			c-1.782-1.159-3.497-2.309-5.228-3.27c-0.628-0.377-1.258-0.725-1.883-1.062c-6.923,7.63-16.108,13.096-26.14,15.469
			c-10.393,2.459-21.492,1.579-31.359-2.516c-6.919-2.873-13.176-7.28-18.229-12.81c-2.35,1.282-4.59,2.728-6.831,4.188
			c-1.728,1.25-3.538,2.5-5.264,3.958c-1.779,1.39-3.464,2.98-5.2,4.577c-5.271,5.162-9.748,10.93-13.607,17.211
			c-1.826,3.263-3.52,6.54-5.131,9.914l-1.383,3.407c-3.471,8.578-5.633,17.753-6.78,26.922c-0.946,5.886-1.036,11.91-1.222,17.854
			c0.098,6.66,0.258,13.313,0.974,19.941C6.073,231.067,0,239.548,0,249.425v172.053c0,3.727,3.111,6.837,6.838,6.837
			s6.837-3.111,6.837-6.837V249.424c0-3.455,1.757-6.509,4.425-8.312c3.449,4.49,9.5,6.287,14.838,4.401
			c0.391,0.917,0.642,1.893,0.744,2.885c0.09,0.885,0.031,1.76,0.24,2.632c0.385,1.597,1.355,3.023,2.693,3.974
			c3.047,2.164,7.398,1.405,9.547-1.649c1.071,8.191,4.098,15.877,8.67,22.481l6.51,142.487c0.367,8.043,7.155,14.604,15.212,14.67
			c8.143,0.067,15.091-6.53,15.497-14.655l5.07-108.871l4.881,108.844c0.362,8.043,7.145,14.608,15.201,14.683
			c8.142,0.075,15.098-6.518,15.509-14.642l6.792-143.206c6.984-10.446,9.811-23.256,8.094-35.688l-10.248-71.64
			c0.072,0.092,0.146,0.182,0.218,0.275c0.864,1.267,1.837,2.468,2.62,3.859l1.257,2.031l1.133,2.156
			c3.142,5.873,5.298,12.354,6.771,18.834c1.272,4.594,1.772,9.426,2.4,14.138c0.386,4.621,0.667,9.22,0.837,13.854
			c0.113,3.125-0.012,6.266-0.039,9.392l-0.005,0.632c-0.054,6.138,4.105,11.319,9.773,12.833
			c9.833,14.485,29.933,9.093,43.36,3.726l-2.959,54.188c-0.361,6.669,1.217,12.526,4.23,17.968l4.877,101.686
			c0.262,5.417,4.881,9.94,10.304,10.088c5.618,0.151,10.568-4.45,10.878-10.053l4.115-79.512l4.116,79.512
			c0.305,5.499,5.086,10.056,10.601,10.056c5.53,0,10.313-4.572,10.583-10.091l4.876-101.686c3.015-5.44,4.592-11.298,4.229-17.968
			l-2.959-54.188c13.771,5.505,34.266,10.809,43.869-4.498c4.545-2.11,7.684-6.724,7.635-12.06l-0.004-0.632
			c-0.027-3.126-0.152-6.268-0.039-9.392c0.17-4.634,0.453-9.232,0.836-13.854c0.625-4.711,1.131-9.544,2.4-14.138
			c1.477-6.48,3.631-12.961,6.771-18.834l1.133-2.156l1.258-2.031c0.783-1.391,1.756-2.593,2.619-3.859
			c0.072-0.093,0.146-0.183,0.219-0.275l-10.25,71.64c-0.273,1.985-0.432,4.046-0.479,6.135
			c-6.867,21.489-12.365,43.455-15.961,65.735c-1.734,10.755-3.02,21.586-3.736,32.458c-0.365,5.531-0.582,11.071-0.631,16.614
			c-0.021,2.466,0.195,4.707,1.859,6.666c1.482,1.744,3.701,2.77,5.988,2.77h26.244l2.301,48.518
			c0.412,8.125,7.367,14.717,15.51,14.642c8.057-0.074,14.838-6.64,15.199-14.683l2.176-48.477h5.518l2.26,48.504
			c0.404,8.126,7.354,14.724,15.498,14.655c8.055-0.066,14.844-6.627,15.211-14.67l2.221-48.491h25.631
			c2.609,0,5.105-1.337,6.549-3.512c1.65-2.488,1.318-5.428,1.27-8.27c-0.113-6.468-0.449-12.932-0.979-19.379
			c-1.035-12.575-2.801-25.087-5.133-37.485c-3.053-16.229-7.068-32.271-11.848-48.074c1.66,3.354,5.852,4.773,9.199,3.086
			c1.539-0.775,2.752-2.133,3.348-3.751c0.738-2.012,0.344-4.178,1.186-6.203c4.777,0.242,9.146-2.105,11.646-5.885
			c4.379,1.075,7.643,5.022,7.643,9.729v172.055c0,3.727,3.111,6.838,6.838,6.838s6.838-3.112,6.838-6.838V250.088
			C476.379,238.849,468.512,229.417,457.994,226.994z M46.246,239.456c-0.093,0.653-0.163,1.305-0.23,1.955
			c-0.988-2.739-2.468-5.242-4.329-7.409c0.021-0.316,0.04-0.632,0.039-0.953l-0.007-0.694c-0.025-3.126-0.15-6.267-0.037-9.392
			c0.17-4.634,0.453-9.231,0.836-13.853c0.635-4.712,1.135-9.541,2.404-14.136c1.475-6.48,3.635-12.962,6.775-18.835l1.135-2.157
			l1.257-2.032c0.69-1.226,1.526-2.307,2.306-3.415L46.246,239.456z M428.971,250.088c0,0.311,0.025,0.611,0.064,0.91
			c-0.744-2.421-1.486-4.782-2.227-7.07c-0.084-1.484-0.221-2.975-0.436-4.474l-10.148-70.92c0.781,1.107,1.615,2.188,2.309,3.415
			l1.256,2.032l1.137,2.157c3.141,5.873,5.301,12.354,6.773,18.835c1.271,4.595,1.77,9.425,2.404,14.136
			c0.381,4.621,0.666,9.219,0.836,13.853c0.113,3.125-0.01,6.265-0.037,9.392l-0.008,0.694c-0.01,1.908,0.406,3.733,1.145,5.395
			C430.09,241.886,428.971,245.858,428.971,250.088z"/>
		<path d="M236.954,204.58c0.058,0,0.114-0.001,0.171-0.003c10.697,0.272,21.135-5.893,26.514-15.029
			c5.491-9.323,5.643-21.079,0.36-30.523c-5.384-9.625-15.777-15.667-26.802-15.656v-0.002c-0.047,0.002-0.096,0.002-0.143,0v0.002
			c-11.023-0.011-21.418,6.032-26.801,15.656c-5.283,9.443-5.131,21.2,0.358,30.523C216.043,198.769,226.255,204.58,236.954,204.58z
			"/>
	</g>
</g>
<g>
</g>
<g>
</g>
<g>
</g>
<g>
</g>
<g>
</g>
<g>
</g>
<g>
</g>
<g>
</g>
<g>
</g>
<g>
</g>
<g>
</g>
<g>
</g>
<g>
</g>
<g>
</g>
<g>
</g>
</svg>
